PathFileType	4	(X/Y/Z)	/Users/niels/Desktop/University/Third Semester/Perception and Action/Exam/Gymnastics Motion Tracking/Code for Gym Tracking/Analyzed Data/Webcam_Backflip/id2_2_baseline_Sports2D/id2_2_baseline_Sports2D_px_person00.trc
DataRate	CameraRate	NumFrames	NumMarkers	Units	OrigDataRate	OrigDataStartFrame	OrigNumFrames
29.87551867219917	29.87551867219917	12	22	m	29.87551867219917	60	241
Frame#	Time	Hip			RHip			RKnee			RAnkle			RBigToe			RSmallToe			RHeel			LHip			LKnee			LAnkle			LBigToe			LSmallToe			LHeel			Neck			Head			Nose			RShoulder			RElbow			RWrist			LShoulder			LElbow			LWrist		
		X1	Y1	Z1	X2	Y2	Z2	X3	Y3	Z3	X4	Y4	Z4	X5	Y5	Z5	X6	Y6	Z6	X7	Y7	Z7	X8	Y8	Z8	X9	Y9	Z9	X10	Y10	Z10	X11	Y11	Z11	X12	Y12	Z12	X13	Y13	Z13	X14	Y14	Z14	X15	Y15	Z15	X16	Y16	Z16	X17	Y17	Z17	X18	Y18	Z18	X19	Y19	Z19	X20	Y20	Z20	X21	Y21	Z21	X22	Y22	Z22
60	2.0083333333333333	0.9348660360081325	-0.5580870078796064	0.0	0.9354290989225584	-0.5566654776061137	0.0	0.9446918010417018	-0.678528167162179	0.0	0.9265583904719686	-0.7965850494906092	0.0	0.9715749247889464	-0.8178491248184865	0.0	0.9654433260960252	-0.8228625609787447	0.0	0.9191946964659468	-0.8171606411976375	0.0	0.9380011074715155	-0.5564558746075182	0.0	0.9456030159092792	-0.6785577791549903	0.0	0.9288025992768025	-0.7917762078645746	0.0	0.9731240255239818	-0.8129294197987824	0.0	0.9675733446373334	-0.8090719660007588	0.0	0.9152277158798036	-0.8063323406642291	0.0	0.9593984556514207	-0.4015076849777295	0.0	0.9982767911767482	-0.32663072394560694	0.0	0.9946324937721948	-0.36719974034282554	0.0	0.9553818461157573	-0.40328793491508785	0.0	0.9991133283191931	-0.32819874668409676	0.0	1.0324370148169888	-0.2640034953563635	0.0	0.9560038530093551	-0.4054237050804116	0.0	0.9968677769455982	-0.3357941284426058	0.0	1.0259474210494048	-0.27181450928213796	0.0
61	2.0418055555555554	0.930232571331742	-0.5523163734351929	0.0	0.9305412718800546	-0.5515528438619944	0.0	0.9469390902350215	-0.672677008919544	0.0	0.9267440370028431	-0.7903913046692184	0.0	0.9719473746148567	-0.8119827687014369	0.0	0.9652521752463918	-0.816554541274641	0.0	0.918042935358046	-0.8106632266633576	0.0	0.9333707745095601	-0.5511313880638941	0.0	0.9470905617580173	-0.6725574908410424	0.0	0.9286939730934147	-0.785103392311844	0.0	0.972085828520829	-0.8066375347632468	0.0	0.9675887609339198	-0.8031036721646204	0.0	0.9150910789761687	-0.7997125503069336	0.0	0.9596498320442	-0.3990102026572327	0.0	1.0010145613569523	-0.32659811967493935	0.0	0.9975128001866388	-0.36503723153378065	0.0	0.9559955996386861	-0.40017852049558766	0.0	1.0102958644334814	-0.33468570033733347	0.0	1.0518558682827812	-0.274344458739989	0.0	0.9567064770730688	-0.4026184752566691	0.0	1.0059024484178951	-0.34143173674513316	0.0	1.0439012486408408	-0.2817431329036677	0.0
62	2.075277777777778	0.9251164939889875	-0.5470265358320994	0.0	0.9248668193045604	-0.5465559532843367	0.0	0.9504628641320136	-0.6657673787919832	0.0	0.9269330234678794	-0.783115458256002	0.0	0.9712785667982543	-0.804593069659118	0.0	0.9635533579691874	-0.8088043625026897	0.0	0.9164843799076338	-0.8025474820928609	0.0	0.9282691952490683	-0.5458755643010527	0.0	0.9499139228038108	-0.66536944446196	0.0	0.9288896283924135	-0.7769968395050111	0.0	0.9708659530895292	-0.7987049692531918	0.0	0.9677471157864009	-0.7955574446245065	0.0	0.9148643638407028	-0.7914939532784365	0.0	0.960069642422137	-0.39744446976969283	0.0	1.0041812951351867	-0.3282747800477131	0.0	1.0006461193226377	-0.364764166814585	0.0	0.9563055021609129	-0.39830201624448147	0.0	1.020482303083697	-0.34445851971042146	0.0	1.0706193765595673	-0.28969297898850677	0.0	0.957180229298624	-0.4009568166898992	0.0	1.014739768730988	-0.34976764730165744	0.0	1.0621947614870533	-0.2964057629742866	0.0
63	2.10875	0.9199020121505643	-0.5431669645558963	0.0	0.9190138067036445	-0.5425175322001549	0.0	0.9549445641039945	-0.658681579614053	0.0	0.9271321543632923	-0.7754241644733618	0.0	0.9702386341871516	-0.7964513138211567	0.0	0.9614028660532382	-0.8004515878901164	0.0	0.9148938725003916	-0.7937715578628446	0.0	0.9230600412881489	-0.5415453502556637	0.0	0.9539091220996461	-0.6578692540174486	0.0	0.9294040766386991	-0.768265033577009	0.0	0.9700402882688011	-0.789948006415338	0.0	0.9681466689904837	-0.7872023048938313	0.0	0.9147229900974189	-0.7826129269604207	0.0	0.960927533956527	-0.39735048913306803	0.0	1.0074226277914278	-0.33175160194170716	0.0	1.0039308285035324	-0.36701781537044353	0.0	0.9568479180435616	-0.3983580115740421	0.0	1.0290191015410555	-0.3574878138126012	0.0	1.087267569127308	-0.310601228951671	0.0	0.9575682109023097	-0.40082270463700836	0.0	1.0228951545655738	-0.3607609740140909	0.0	1.0793763066108237	-0.31607952799234185	0.0
64	2.1422222222222222	0.9148931914758441	-0.5414674999592033	0.0	0.9136187914748054	-0.5402720941366113	0.0	0.9598689277275272	-0.6524994695760781	0.0	0.9273657013652956	-0.7682982470156557	0.0	0.9695574410096097	-0.7887215593032482	0.0	0.9598453539528119	-0.792666572958175	0.0	0.9136095722207617	-0.7855905501460463	0.0	0.918080172829695	-0.538966923153197	0.0	0.9586406721153082	-0.6511943279500055	0.0	0.9301229963372953	-0.7601181723423892	0.0	0.9698990715577007	-0.7816664972247857	0.0	0.9686792953474401	-0.7792530861425768	0.0	0.9146669330828225	-0.7743892604603806	0.0	0.9623727817292087	-0.3991018432679808	0.0	1.0103396526234423	-0.33683431621604676	0.0	1.0071809178806406	-0.3718531223288497	0.0	0.9580244629849461	-0.40082015729890663	0.0	1.0353097965926825	-0.37376994091332977	0.0	1.1004427278772597	-0.3373484388151988	0.0	0.9582041212886376	-0.4025575260638524	0.0	1.0297668005163374	-0.374563474829095	0.0	1.093868729562758	-0.34082909593228805	0.0
65	2.1756944444444444	0.9103346743493724	-0.5423409311331804	0.0	0.9091672712837349	-0.5404643128302801	0.0	0.9646862366086177	-0.6483163804821076	0.0	0.9276204971991279	-0.7628929432801994	0.0	0.9695965246364872	-0.782686331302286	0.0	0.9593704883935508	-0.7866625247200859	0.0	0.9128136681538747	-0.7792516525792046	0.0	0.9136033030674593	-0.5387784781757241	0.0	0.9634872283414417	-0.6465430182685794	0.0	0.9308122117851452	-0.7539390900761591	0.0	0.970380019734138	-0.7753086217047166	0.0	0.9691155018311667	-0.7730872827133942	0.0	0.9145441193035907	-0.7682349652809283	0.0	0.9643537097404828	-0.40301169514036095	0.0	1.0127435401615719	-0.34332517045517574	0.0	1.0102323091483578	-0.3790129862941011	0.0	0.9598604870850148	-0.4059537794513072	0.0	1.0388145202312942	-0.3934771237501669	0.0	1.10898601526614	-0.36987178549426475	0.0	0.959412675879989	-0.4065807503672962	0.0	1.0347068691392511	-0.3915338557266445	0.0	1.1042568400633155	-0.37050985067757425	0.0
66	2.2091666666666665	0.9065192059873894	-0.5459573278065253	0.0	0.9059194053668282	-0.5434692279217711	0.0	0.9689579712576263	-0.6470831596802468	0.0	0.9278415632109391	-0.7602977254970151	0.0	0.9702163779135556	-0.7794530035466926	0.0	0.9598358474689279	-0.7834343929198625	0.0	0.912485695271534	-0.7757874767229783	0.0	0.9098710498283692	-0.5413724542746365	0.0	0.9678704955619993	-0.6449262837270939	0.0	0.9312686178549509	-0.7509112163629015	0.0	0.9712935074635626	-0.7720433653866041	0.0	0.969355691477	-0.7698730958425606	0.0	0.9142930668710969	-0.765277403449922	0.0	0.9666695742156106	-0.40928264086596705	0.0	1.0146374389452155	-0.3511675978516535	0.0	1.0129432138929277	-0.38815219156225034	0.0	0.9620702675926683	-0.4137899521460999	0.0	1.0391618833963314	-0.4167765538422144	0.0	1.1119325969180538	-0.40763619012996216	0.0	0.9612709837661567	-0.41321739076749686	0.0	1.0371997433603093	-0.411998152733905	0.0	1.1093306433109769	-0.4046832032332075	0.0
67	2.242638888888889	0.903812453961453	-0.5523456731751643	0.0	0.9039881465127905	-0.5494088758628333	0.0	0.9724120009303175	-0.6494746008004341	0.0	0.9279686827935575	-0.7613496757782279	0.0	0.9710206022363781	-0.7798369802379802	0.0	0.9607596082744554	-0.7837096404323306	0.0	0.9124522040521862	-0.7759762967179452	0.0	0.9071623588031829	-0.546927126361926	0.0	0.9714439729330424	-0.6469890883342171	0.0	0.9314497409837532	-0.7517768381549912	0.0	0.9724702018721618	-0.7725935185707068	0.0	0.969529824696436	-0.7704223452428544	0.0	0.914036951330186	-0.7661317156185633	0.0	0.9690626447752463	-0.417802237676376	0.0	1.0160613277320014	-0.3603279814143005	0.0	1.0151377681329372	-0.3987821185347261	0.0	0.9642470389030396	-0.42409118923793226	0.0	1.0360906095809461	-0.44336765420857227	0.0	1.1084753892508794	-0.44942099403942404	0.0	0.9635316169913373	-0.42243432437887457	0.0	1.0368038095589598	-0.4358947943143232	0.0	1.1081020043751446	-0.44246400677090614	0.0
68	2.276111111111111	0.9025438236173728	-0.5613720521164685	0.0	0.9034759361104727	-0.5581358802203287	0.0	0.9749398966364674	-0.6557741130446753	0.0	0.9279840497952836	-0.766487905958677	0.0	0.9716882037021474	-0.784301806074494	0.0	0.9616695187969704	-0.7879494948746056	0.0	0.9125507412281955	-0.78025693838532	0.0	0.9057789734838112	-0.5553900771408611	0.0	0.9740740061583342	-0.6529822931321132	0.0	0.9314176969174524	-0.7568671196387438	0.0	0.9737420206110065	-0.7773092812411432	0.0	0.9698098718941638	-0.7751774730685524	0.0	0.9139470247402895	-0.7709546898165385	0.0	0.9712462210221773	-0.4281173996121225	0.0	1.0171257637610582	-0.37068132978225404	0.0	1.016732046923466	-0.4103133751956755	0.0	0.9659909995539204	-0.4363926095551642	0.0	1.0292867895462268	-0.47209840961112387	0.0	1.0980408573564175	-0.49316291737412254	0.0	0.9656250988933238	-0.4338001954460698	0.0	1.0328999591945514	-0.46248228195118674	0.0	1.099929129754063	-0.48241552191519793	0.0
69	2.3095833333333333	0.9028668314734982	-0.5726236189297793	0.0	0.9044663951787354	-0.5691912517014193	0.0	0.9765648450045121	-0.665788007534639	0.0	0.9279416817847849	-0.7755700635032823	0.0	0.9720834673469304	-0.7927936876238031	0.0	0.9622529839290744	-0.7961781963605372	0.0	0.9127532850786997	-0.7884921001129355	0.0	0.9059361198072333	-0.5663842489657335	0.0	0.975723041797523	-0.6627511337568273	0.0	0.9312200434369764	-0.7661320825396091	0.0	0.974908315785117	-0.7861490756491453	0.0	0.9701897420478516	-0.7840570252827571	0.0	0.9140902835751207	-0.7795347604982228	0.0	0.9729957488232507	-0.43958009840539924	0.0	1.0180426145831634	-0.3819725282043662	0.0	1.0178805075038881	-0.42222405652310674	0.0	0.9670219983350855	-0.45004214630714917	0.0	1.0185336208906677	-0.5010357527374044	0.0	1.0804670245510013	-0.5361591457014524	0.0	0.9669183745691455	-0.44660041013674845	0.0	1.0248453036413403	-0.49029996022948635	0.0	1.084685427755954	-0.5225589374263475	0.0
70	2.3430555555555554	0.9046908945551375	-0.5853412164153713	0.0	0.9068566440294801	-0.5818343023420965	0.0	0.9774062832646684	-0.6788095763534762	0.0	0.9279179995666994	-0.7877166761734433	0.0	0.9721232128594326	-0.8045399185287053	0.0	0.9622678357773994	-0.807709184650663	0.0	0.9130928307187808	-0.7997866440334114	0.0	0.9076367253393762	-0.5791766798930812	0.0	0.9764415679305005	-0.6756111286459181	0.0	0.9309003649190492	-0.7789219969717043	0.0	0.9757177700008224	-0.7985246334350068	0.0	0.9704819569541245	-0.7962357434515337	0.0	0.9143851014000092	-0.7911389093220325	0.0	0.974281442864035	-0.4514650727449809	0.0	1.0189763143967927	-0.393773543421406	0.0	1.018844663659703	-0.4340823311874711	0.0	0.967290890265375	-0.46420496666485694	0.0	1.0041265299170095	-0.5279124226156302	0.0	1.0561220535488665	-0.575582195775083	0.0	0.9671554913210058	-0.459961225598411	0.0	1.0125065857737168	-0.5173597012679932	0.0	1.0628119639520008	-0.5604804100516114	0.0
71	2.376527777777778	0.9077209214611218	-0.5984761235381936	0.0	0.9102760347877981	-0.5951077326533505	0.0	0.9777029072865933	-0.6935914295178306	0.0	0.9279332663790288	-0.8013764826687536	0.0	0.9716544103081202	-0.8180405400249985	0.0	0.9614768177548	-0.821104664708145	0.0	0.9135526300456549	-0.8125823560401781	0.0	0.9106311504758385	-0.5927339132525832	0.0	0.9764437050035598	-0.6902278697117392	0.0	0.9305520304932536	-0.7937685287140264	0.0	0.9759296945987995	-0.8133285030483943	0.0	0.9704636984327478	-0.8101487507145398	0.0	0.9146436463888626	-0.8043611554036839	0.0	0.9752413283819443	-0.46302249906276727	0.0	1.0199933414872142	-0.40545419037429586	0.0	1.019789321921219	-0.44544832211245944	0.0	0.9669537527113018	-0.47790481657023165	0.0	0.9870291113797164	-0.5506143091432892	0.0	1.0259805951069974	-0.6088612723079657	0.0	0.9665669064438905	-0.47296247273698516	0.0	0.9965519628660139	-0.5414238321598318	0.0	1.0352774126155375	-0.5935295312660351	0.0
